<svg width="187" height="205" viewBox="0 0 187 205" fill="none" xmlns="http://www.w3.org/2000/svg">
<path d="M96.5 123.968V120.594C96.5 118.65 97.8874 117.562 98.9688 117.562H148.188C168.229 117.562 184 99.7272 184 78.375V66.3125C184 49.4261 174.212 34.8427 160.214 29.3879L156.125 27.7943V32.1832V78.375C156.125 83.6733 152.311 87.4375 148.188 87.4375H98.9688C81.9349 87.4375 68.625 102.559 68.625 120.594V123.968C62.1995 125.467 57.6875 131.688 57.6875 138.688V186.938C57.6875 194.983 63.6487 202 71.625 202H93.5C101.476 202 107.438 194.983 107.438 186.938V138.688C107.438 131.688 102.925 125.467 96.5 123.968ZM27.875 3C13.866 3 3 15.426 3 30.125V54.25C3 68.9286 13.8646 81.375 27.875 81.375H126.312C140.304 81.375 151.188 68.9302 151.188 54.25V30.125C151.188 15.4244 140.303 3 126.312 3H27.875Z" fill="#355DBD" stroke="white" stroke-width="6"/>
</svg>
