<svg width="44" height="44" viewBox="0 0 44 44" fill="none" xmlns="http://www.w3.org/2000/svg">
<path d="M37.4098 6.48242C33.2946 2.38086 27.8143 0.125 21.9902 0.125C9.96875 0.125 0.186607 9.85156 0.186607 21.8047C0.186607 25.623 1.18839 29.3535 3.09375 32.6445L0 43.875L11.5598 40.8574C14.742 42.5859 18.3268 43.4941 21.9804 43.4941H21.9902C34.0018 43.4941 44 33.7676 44 21.8145C44 16.0234 41.525 10.584 37.4098 6.48242ZM21.9902 39.8418C18.7295 39.8418 15.5375 38.9727 12.758 37.332L12.1 36.9414L5.24464 38.7285L7.07143 32.0781L6.63929 31.3945C4.82232 28.5234 3.86964 25.2129 3.86964 21.8047C3.86964 11.873 12.0018 3.78711 22 3.78711C26.842 3.78711 31.3893 5.66211 34.8071 9.07031C38.225 12.4785 40.3268 17 40.317 21.8145C40.317 31.7559 31.9786 39.8418 21.9902 39.8418ZM31.9295 26.3457C31.3893 26.0723 28.708 24.7637 28.2071 24.5879C27.7063 24.4023 27.3429 24.3145 26.9795 24.8613C26.6161 25.4082 25.575 26.6191 25.2509 26.9902C24.9366 27.3516 24.6125 27.4004 24.0723 27.127C20.8705 25.5352 18.7688 24.2852 16.6571 20.6816C16.0973 19.7246 17.217 19.793 18.258 17.7227C18.4348 17.3613 18.3464 17.0488 18.2089 16.7754C18.0714 16.502 16.9813 13.8359 16.5295 12.752C16.0875 11.6973 15.6357 11.8438 15.3018 11.8242C14.9875 11.8047 14.6241 11.8047 14.2607 11.8047C13.8973 11.8047 13.308 11.9414 12.8071 12.4785C12.3062 13.0254 10.9018 14.334 10.9018 17C10.9018 19.666 12.8563 22.2441 13.1214 22.6055C13.3964 22.9668 16.9616 28.4355 22.4321 30.7891C25.8893 32.2734 27.2446 32.4004 28.9732 32.1465C30.0241 31.9902 32.1946 30.8379 32.6464 29.5684C33.0982 28.2988 33.0982 27.2148 32.9607 26.9902C32.833 26.7461 32.4696 26.6094 31.9295 26.3457Z" fill="#289900"/>
</svg>
